<svg width="524" height="816" viewBox="0 0 524 816" fill="none" xmlns="http://www.w3.org/2000/svg">
<path opacity="0.02" d="M281.445 588.286L395.063 486.681C411.909 498.051 432.347 502.817 452.478 500.069C472.61 497.32 491.026 487.25 504.214 471.779C517.401 456.308 524.437 436.519 523.979 416.188C523.52 395.856 515.6 376.405 501.729 361.546C487.857 346.686 469.006 337.457 448.771 335.62C428.536 333.784 408.333 339.468 392.018 351.587C375.702 363.707 364.415 381.415 360.31 401.332C356.205 421.249 359.569 441.982 369.761 459.575L281.445 538.586V368.954L391.668 270.362C407.903 282.567 428.059 288.361 448.29 286.641C468.522 284.92 487.412 275.805 501.357 261.034C515.302 246.263 523.326 226.87 523.898 206.556C524.471 186.241 517.55 166.427 504.459 150.893C491.367 135.36 473.019 125.194 452.917 122.335C432.815 119.477 412.365 124.126 395.469 135.396C378.572 146.665 366.413 163.767 361.31 183.437C356.207 203.107 358.517 223.969 367.801 242.043L281.445 319.253V163.498C301.223 159.113 318.695 147.594 330.531 131.139C342.366 114.683 347.735 94.4433 345.614 74.2792C343.493 54.1151 334.03 35.438 319.03 21.8107C304.031 8.18345 284.544 0.559588 264.288 0.3934C244.031 0.227212 224.422 7.53033 209.202 20.9097C193.981 34.2891 184.213 52.8083 181.762 72.9349C179.311 93.0616 184.348 113.387 195.912 130.034C207.476 146.681 224.758 158.485 244.461 163.194V322.267L156.186 243.378C162.644 231.455 166.021 218.104 166.008 204.54C166.074 185.953 159.886 167.885 148.439 153.248C136.993 138.611 120.956 128.259 102.913 123.86C84.8697 119.461 65.8724 121.272 48.9832 129C32.0939 136.729 18.2969 149.924 9.81617 166.46C1.33542 182.996 -1.33487 201.909 2.23571 220.15C5.8063 238.39 15.4097 254.896 29.4979 267.006C43.5861 279.116 61.3382 286.125 79.8924 286.903C98.4467 287.68 116.722 282.182 131.772 271.293L244.461 372.028V541.66L154.104 460.87C164.563 443.504 168.271 422.893 164.521 402.967C160.77 383.04 149.823 365.192 133.768 352.827C117.713 340.461 97.6717 334.442 77.4669 335.918C57.2621 337.394 38.3068 346.262 24.2156 360.83C10.1244 375.399 1.88307 394.648 1.06315 414.909C0.24323 435.169 6.90204 455.023 19.7699 470.684C32.6377 486.345 50.8143 496.718 70.8337 499.825C90.853 502.932 111.315 498.556 128.317 487.53L244.461 591.3V814.718C250.524 814.981 256.729 815.143 262.913 815.143C269.097 815.143 275.301 814.981 281.445 814.718V588.286ZM440.939 372.959C449.899 372.963 458.656 375.625 466.104 380.61C473.552 385.595 479.357 392.678 482.784 400.964C486.211 409.25 487.106 418.367 485.357 427.163C483.608 435.958 479.293 444.037 472.958 450.378C466.622 456.719 458.551 461.038 449.763 462.789C440.976 464.539 431.867 463.643 423.589 460.213C415.31 456.783 408.234 450.973 403.254 443.518C398.273 436.064 395.613 427.298 395.609 418.33C395.614 406.299 400.392 394.761 408.892 386.254C417.392 377.746 428.918 372.964 440.939 372.959ZM440.939 159.189C449.89 159.201 458.636 161.869 466.073 166.855C473.51 171.841 479.302 178.922 482.719 187.202C486.137 195.483 487.024 204.591 485.271 213.377C483.517 222.162 479.201 230.23 472.867 236.561C466.534 242.892 458.468 247.201 449.688 248.944C440.908 250.688 431.809 249.787 423.541 246.356C415.272 242.925 408.206 237.117 403.234 229.667C398.262 222.217 395.609 213.459 395.609 204.5C395.612 198.545 396.786 192.65 399.066 187.149C401.346 181.649 404.686 176.653 408.895 172.445C413.105 168.237 418.102 164.901 423.6 162.626C429.098 160.352 434.99 159.184 440.939 159.189ZM83.6736 249.871C74.7227 249.859 65.9763 247.192 58.5397 242.206C51.1032 237.22 45.3103 230.139 41.8933 221.858C38.4762 213.578 37.5884 204.469 39.342 195.684C41.0955 186.898 45.4118 178.831 51.7453 172.5C58.0787 166.169 66.1451 161.86 74.9248 160.116C83.7046 158.373 92.8037 159.274 101.072 162.705C109.341 166.136 116.407 171.944 121.379 179.394C126.35 186.844 129.004 195.602 129.004 204.561C129.001 210.515 127.826 216.411 125.547 221.911C123.267 227.411 119.927 232.408 115.717 236.616C111.508 240.823 106.511 244.16 101.013 246.434C95.5148 248.709 89.6228 249.877 83.6736 249.871ZM83.6736 463.702C74.7113 463.698 65.9514 461.033 58.502 456.046C51.0527 451.058 45.2483 443.972 41.8232 435.682C38.3981 427.393 37.5061 418.273 39.2599 409.476C41.0138 400.679 45.3347 392.6 51.6763 386.261C58.0179 379.922 66.0951 375.608 74.8865 373.864C83.6779 372.121 92.7884 373.026 101.066 376.465C109.343 379.904 116.416 385.723 121.389 393.186C126.362 400.649 129.012 409.42 129.004 418.391C128.982 430.406 124.196 441.922 115.696 450.407C107.196 458.892 95.6782 463.652 83.6736 463.641V463.702ZM218.169 83.0915C218.181 74.1219 220.85 65.3573 225.838 57.906C230.827 50.4547 237.911 44.6514 246.195 41.23C254.479 37.8086 263.591 36.9227 272.377 38.6843C281.164 40.446 289.232 44.7761 295.56 51.127C301.889 57.478 306.193 65.5646 307.93 74.3642C309.666 83.1638 308.757 92.2812 305.316 100.563C301.876 108.846 296.059 115.921 288.601 120.894C281.143 125.867 272.379 128.515 263.418 128.503C251.406 128.471 239.897 123.673 231.414 115.16C222.932 106.647 218.168 95.1145 218.169 83.0915Z" fill="black"/>
</svg>
