<svg width="172" height="55" viewBox="0 0 172 55" fill="none" xmlns="http://www.w3.org/2000/svg">
<g clip-path="url(#clip0_596_14552)">
<path d="M19.0143 32.048C19.0133 32.7277 18.7485 33.3792 18.2778 33.8596C17.8072 34.34 17.1692 34.61 16.504 34.6103C15.8389 34.61 15.2012 34.3399 14.731 33.8595C14.2607 33.379 13.9964 32.7275 13.9961 32.048C13.9964 31.3683 14.2607 30.7165 14.7308 30.2356C15.201 29.7548 15.8387 29.4841 16.504 29.4832C17.1695 29.4841 17.8074 29.7547 18.278 30.2355C18.7485 30.7163 19.0133 31.3681 19.0143 32.048Z" fill="#F6A704"/>
<path d="M19.0143 19.9549C19.0133 20.6346 18.7485 21.2862 18.2778 21.7666C17.8072 22.247 17.1692 22.517 16.504 22.5173C15.8389 22.517 15.2012 22.2469 14.731 21.7664C14.2607 21.286 13.9964 20.6344 13.9961 19.9549C13.9964 19.2755 14.2607 18.6239 14.731 18.1434C15.2012 17.663 15.8389 17.3929 16.504 17.3926C17.1692 17.3929 17.8072 17.6629 18.2778 18.1433C18.7485 18.6237 19.0133 19.2752 19.0143 19.9549Z" fill="#F6A704"/>
<path d="M28.9774 13.0949C28.9771 13.7748 28.7129 14.4267 28.2428 14.9078C27.7726 15.3888 27.1349 15.6597 26.4695 15.661C25.8037 15.66 25.1655 15.3894 24.6947 14.9084C24.2239 14.4273 23.959 13.7752 23.958 13.0949C23.9593 12.4151 24.2244 11.7636 24.6953 11.2832C25.1661 10.8029 25.8042 10.5329 26.4695 10.5326C27.1346 10.5329 27.7723 10.803 28.2425 11.2835C28.7128 11.7639 28.9771 12.4155 28.9774 13.0949Z" fill="#F6A704"/>
<path d="M38.8085 32.048C38.8082 32.7275 38.5438 33.379 38.0736 33.8595C37.6033 34.3399 36.9656 34.61 36.3006 34.6103C35.6352 34.61 34.9972 34.3401 34.5263 33.8597C34.0555 33.3794 33.7904 32.7278 33.7891 32.048C33.7904 31.3679 34.0554 30.7161 34.5262 30.2354C34.9969 29.7546 35.635 29.4841 36.3006 29.4832C36.9659 29.4841 37.6036 29.7548 38.0737 30.2356C38.5439 30.7165 38.8082 31.3683 38.8085 32.048Z" fill="#F6A704"/>
<path d="M38.8085 19.9549C38.8082 20.6344 38.5438 21.286 38.0736 21.7664C37.6033 22.2469 36.9656 22.517 36.3006 22.5173C35.6352 22.517 34.9972 22.247 34.5263 21.7667C34.0555 21.2863 33.7904 20.6348 33.7891 19.9549C33.7904 19.2751 34.0555 18.6236 34.5263 18.1432C34.9972 17.6629 35.6352 17.3929 36.3006 17.3926C36.9656 17.3929 37.6033 17.663 38.0736 18.1434C38.5438 18.6239 38.8082 19.2755 38.8085 19.9549Z" fill="#F6A704"/>
<path d="M52.8751 27.5C52.8751 42.0744 41.5891 53.9444 27.4635 54.4888V41.6583L33.7582 35.912C34.5091 36.4295 35.3945 36.7054 36.3002 36.7043C37.5086 36.7026 38.667 36.2113 39.5214 35.3382C40.3757 34.4651 40.8563 33.2813 40.8576 32.0467C40.8563 30.8118 40.3758 29.6278 39.5215 28.7543C38.6673 27.8808 37.5088 27.3889 36.3002 27.3866C35.0908 27.3879 33.9314 27.8793 33.0761 28.7529C32.2208 29.6265 31.7396 30.8111 31.738 32.0467C31.7392 32.8662 31.9529 33.6708 32.3573 34.3786L27.4635 38.8481V29.2564L33.5692 23.6832C34.3565 24.2883 35.3151 24.6154 36.3002 24.615C37.5086 24.6133 38.667 24.1221 39.5214 23.2489C40.3757 22.3758 40.8563 21.1921 40.8576 19.9574C40.8563 18.7229 40.3757 17.5393 39.5213 16.6663C38.6669 15.7934 37.5085 15.3024 36.3002 15.3011C35.0913 15.3017 33.932 15.7924 33.0767 16.6653C32.2214 17.5383 31.7399 18.7222 31.738 19.9574C31.7383 20.6977 31.9131 21.4271 32.2476 22.0838L27.4635 26.4436V17.633C28.473 17.4012 29.3754 16.8259 30.0229 16.0014C30.6704 15.1769 31.0245 14.1521 31.0272 13.095C31.0259 11.8604 30.5454 10.6766 29.691 9.80349C28.8367 8.93034 27.6783 8.43907 26.4699 8.43742C25.2609 8.43873 24.1018 8.92975 23.2466 9.80282C22.3914 10.6759 21.9099 11.8598 21.9077 13.095C21.91 14.1423 22.2571 15.1583 22.8931 15.9796C23.5291 16.801 24.417 17.3798 25.414 17.623V26.6193L20.5239 22.1573C20.8811 21.4829 21.068 20.728 21.0676 19.9612C21.0657 18.7262 20.5844 17.5424 19.7294 16.6695C18.8743 15.7966 17.7154 15.3058 16.5066 15.3048C15.2982 15.3042 14.139 15.7935 13.2834 16.6653C12.4278 17.5372 11.9458 18.7203 11.9432 19.9549C11.9442 21.1899 12.4248 22.374 13.2794 23.2472C14.1341 24.1205 15.2931 24.6115 16.5018 24.6125C17.4597 24.613 18.393 24.3024 19.1669 23.7256L25.4092 29.4233V39.015L20.4032 34.4459C20.8332 33.7226 21.0613 32.8929 21.0628 32.0467C21.0611 30.8113 20.5801 29.6269 19.7251 28.7533C18.8701 27.8798 17.7109 27.3883 16.5018 27.3866C15.2926 27.3883 14.1335 27.88 13.2789 28.7539C12.4242 29.6278 11.9438 30.8125 11.9432 32.0479C11.9442 33.2829 12.4248 34.467 13.2794 35.3402C14.1341 36.2135 15.2931 36.7045 16.5018 36.7055C17.3799 36.7072 18.2395 36.4475 18.9755 35.9581L25.4092 41.8265V54.4888C11.2848 53.9444 -0.00488281 42.0681 -0.00488281 27.5C-0.00488281 12.5818 11.8298 0.48877 26.4345 0.48877C41.0392 0.48877 52.8751 12.5818 52.8751 27.5Z" fill="#F6A704"/>
<path d="M88.5105 23.1202H83.3838V43.7523H88.5105V23.1202Z" fill="white"/>
<path d="M72.5587 31.4488L80.0458 23.1289H73.6657L66.7322 31.4488V16.715H61.6055V43.7411H66.7322V37.5975L68.9755 35.1696L73.6657 43.7411H80.0458L72.5587 31.4488Z" fill="white"/>
<path d="M103.235 31.4488L110.43 23.109H104.05L97.446 31.4052V16.715H92.3193V43.7411H97.446V37.5563L99.6516 35.1696L104.342 43.7411H110.721L103.235 31.4488Z" fill="white"/>
<path d="M156.688 23.0853C149.086 23.0853 148.851 30.2293 148.851 30.2293H154.094C154.094 30.2293 153.783 27.3717 157.233 27.3717C160.684 27.3717 160.795 29.158 160.795 29.4719C160.795 29.7858 160.579 31.2794 157.32 31.6145C154.061 31.9495 148.082 32.403 148.17 38.5068C148.233 43.1556 152.726 43.7623 155.687 43.7822C156.646 43.7902 157.594 43.5861 158.468 43.184C159.341 42.7819 160.119 42.1913 160.748 41.4528L160.796 41.3967V43.7386H165.631V27.7578C165.631 27.7578 164.991 23.0853 156.688 23.0853ZM156.108 40.7228C155.41 40.7222 154.74 40.4381 154.246 39.9331C153.753 39.428 153.476 38.7434 153.476 38.0297C153.473 37.3991 153.689 36.7879 154.085 36.3044C154.477 35.8275 155.02 35.5051 155.619 35.3926L155.692 35.3814C155.749 35.37 155.807 35.3617 155.864 35.3565C159.3 34.8819 160.556 34.0024 160.556 34.0024C161.496 41.1028 156.108 40.7291 156.108 40.7291" fill="white"/>
<path d="M142.287 23.7405L138.522 38.3821L134.489 23.7405H129.381L135.721 43.741C136.286 47.6711 133.704 47.6711 133.704 47.6711L133.663 47.7895H131.881V51.9861H133.71C134.421 51.9861 134.836 52.0995 135.539 51.9861C136.173 51.884 137.124 51.6635 137.685 51.2811C138.149 50.9622 138.487 50.4577 138.748 49.9258C139.274 48.8088 139.733 47.6598 140.121 46.4852C140.434 45.5809 140.73 44.6653 140.997 43.7448L147.236 23.7442L142.287 23.7405Z" fill="white"/>
<path d="M168.243 16.4771C167.246 16.4777 166.29 16.8828 165.585 17.6034C164.88 18.324 164.484 19.3011 164.483 20.32C164.486 21.3375 164.883 22.3127 165.588 23.0317C166.292 23.7506 167.247 24.1547 168.243 24.1554C169.239 24.1541 170.193 23.7496 170.897 23.0307C171.601 22.3118 171.998 21.337 172 20.32C172 19.3016 171.604 18.3249 170.9 17.6044C170.195 16.8838 169.24 16.4784 168.243 16.4771ZM168.243 23.3283C167.462 23.3276 166.714 23.0105 166.161 22.4466C165.609 21.8826 165.298 21.1178 165.297 20.32C165.297 19.5212 165.607 18.7551 166.16 18.1901C166.712 17.6251 167.462 17.3073 168.243 17.3067C169.025 17.308 169.774 17.626 170.326 18.191C170.878 18.756 171.188 19.5216 171.188 20.32C171.186 21.117 170.875 21.8807 170.323 22.4441C169.771 23.0074 169.023 23.3245 168.243 23.3258" fill="white"/>
<path d="M169.002 20.3722C169.173 20.2701 169.314 20.1245 169.412 19.9498C169.51 19.7751 169.562 19.5772 169.563 19.3757C169.563 19.066 169.442 18.7691 169.228 18.5503C169.013 18.3314 168.723 18.2085 168.42 18.2085H166.669V22.1685H167.616V20.6039H168.166C168.31 20.6039 168.41 20.7945 168.41 20.7945L169.02 22.1648H170.035C170.028 22.0178 169.341 20.8082 169.257 20.6264C169.195 20.5199 169.107 20.4319 169.001 20.371L169.002 20.3722ZM168.418 19.1739C168.444 19.1737 168.469 19.1787 168.493 19.1886C168.517 19.1985 168.538 19.2131 168.556 19.2315C168.574 19.2499 168.589 19.2718 168.599 19.2959C168.609 19.32 168.614 19.3458 168.614 19.372C168.614 19.4248 168.593 19.4755 168.556 19.5129C168.52 19.5503 168.47 19.5713 168.418 19.5713H167.615V19.1739H168.418Z" fill="white"/>
<path d="M119.505 43.6439C117.908 43.6562 116.338 43.2257 114.962 42.3982C112.828 41.089 111.994 39.1894 111.549 37.8739C111.08 36.48 110.928 35.1235 110.845 33.5141V33.4356C110.821 31.8723 110.911 29.8169 111.82 27.7852C113.527 23.9921 118.109 22.1921 122.484 23.5985C124.604 24.2799 126.118 25.6427 127.116 27.7615C128.204 30.0735 128.321 32.4116 128.3 34.1905C128.287 35.5071 128.149 37.4828 127.123 39.446C126.165 41.2759 124.318 42.6772 122.049 43.2939C121.22 43.5225 120.364 43.6401 119.505 43.6439ZM115.27 33.3384C115.335 34.5729 115.444 35.5869 115.757 36.5087C116.13 37.6211 116.579 38.2526 117.306 38.7011C118.274 39.294 119.609 39.4485 120.879 39.0984C121.958 38.8044 122.803 38.2065 123.196 37.4566C123.656 36.5772 123.867 35.5582 123.883 34.1519C123.905 32.165 123.673 30.8035 123.109 29.6027C122.632 28.5887 122.056 28.053 121.12 27.7516C118.914 27.0428 116.658 27.8188 115.878 29.5591C115.316 30.7935 115.254 32.16 115.27 33.3384Z" fill="white"/>
</g>
<defs>
<clipPath id="clip0_596_14552">
<rect width="172" height="54" fill="white" transform="translate(0 0.48877)"/>
</clipPath>
</defs>
</svg>
