<svg width="284" height="88" viewBox="0 0 284 88" fill="none" xmlns="http://www.w3.org/2000/svg">
<path d="M31.3593 50.9257C31.3585 51.7437 31.1152 52.543 30.6602 53.2227C30.2052 53.9024 29.5589 54.432 28.803 54.7446C28.0471 55.0571 27.2155 55.1386 26.4133 54.9787C25.6111 54.8188 24.8743 54.4246 24.296 53.8461C23.7177 53.2676 23.3239 52.5307 23.1644 51.7285C23.0049 50.9263 23.0868 50.0948 23.3997 49.3391C23.7126 48.5834 24.2426 47.9374 24.9226 47.4828C25.6026 47.0282 26.4021 46.7853 27.2201 46.7849C28.3181 46.7854 29.3709 47.222 30.1471 47.9984C30.9232 48.7749 31.3593 49.8279 31.3593 50.9257Z" fill="#F6A704"/>
<path d="M31.3593 31.4116C31.3597 32.2298 31.1174 33.0297 30.6631 33.7102C30.2089 34.3907 29.563 34.9213 28.8072 35.2347C28.0514 35.5482 27.2196 35.6305 26.417 35.4713C25.6144 35.3121 24.877 34.9184 24.2981 34.3402C23.7193 33.7619 23.3249 33.025 23.1648 32.2226C23.0048 31.4203 23.0864 30.5885 23.3991 29.8324C23.7119 29.0764 24.2418 28.43 24.922 27.9751C25.6021 27.5203 26.4019 27.2773 27.2201 27.2769C28.317 27.2774 29.3689 27.7131 30.1449 28.4882C30.9209 29.2634 31.3577 30.3148 31.3593 31.4116Z" fill="#F6A704"/>
<path d="M47.7803 20.3301C47.7811 21.149 47.5389 21.9497 47.0844 22.631C46.6299 23.3122 45.9835 23.8433 45.227 24.157C44.4705 24.4708 43.6379 24.5531 42.8346 24.3935C42.0313 24.234 41.2934 23.8397 40.7143 23.2606C40.1352 22.6816 39.7409 21.9438 39.5813 21.1405C39.4217 20.3373 39.504 19.5048 39.8178 18.7484C40.1316 17.992 40.6627 17.3456 41.344 16.8912C42.0253 16.4367 42.8261 16.1945 43.6451 16.1953C44.7412 16.1974 45.7917 16.6337 46.5668 17.4087C47.3418 18.1837 47.7781 19.2341 47.7803 20.3301" fill="#F6A704"/>
<path d="M63.9883 50.9257C63.9879 51.7444 63.7447 52.5445 63.2894 53.225C62.8342 53.9054 62.1874 54.4356 61.4308 54.7484C60.6742 55.0612 59.8418 55.1427 59.0389 54.9824C58.236 54.8222 57.4987 54.4274 56.9202 53.8481C56.3417 53.2688 55.948 52.531 55.7889 51.7279C55.6298 50.9249 55.7124 50.0927 56.0264 49.3366C56.3403 48.5805 56.8715 47.9345 57.5527 47.4803C58.2338 47.0261 59.0344 46.7841 59.8531 46.7849C60.3966 46.7852 60.9347 46.8925 61.4367 47.1008C61.9386 47.309 62.3947 47.6141 62.7787 47.9987C63.1627 48.3832 63.4671 48.8396 63.6747 49.3419C63.8822 49.8441 63.9888 50.3823 63.9883 50.9257" fill="#F6A704"/>
<path d="M63.9883 31.4116C63.9891 32.2305 63.7469 33.0313 63.2924 33.7125C62.8379 34.3938 62.1915 34.9249 61.435 35.2386C60.6785 35.5524 59.8459 35.6347 59.0426 35.4751C58.2393 35.3155 57.5014 34.9213 56.9223 34.3422C56.3432 33.7631 55.9489 33.0253 55.7893 32.2221C55.6297 31.4189 55.712 30.5864 56.0258 29.8299C56.3396 29.0735 56.8707 28.4272 57.552 27.9727C58.2333 27.5182 59.0341 27.2761 59.8531 27.2769C60.9497 27.2774 62.0012 27.7132 62.7765 28.4885C63.5519 29.2638 63.9877 30.3152 63.9883 31.4116" fill="#F6A704"/>
<path d="M87.1837 43.5849C87.1837 67.1029 68.5746 86.2571 45.2835 87.1376V66.4336L55.6626 57.161C57.2028 58.2007 59.0719 58.637 60.9133 58.3866C62.7546 58.1361 64.4394 57.2166 65.6459 55.8033C66.8525 54.3901 67.4964 52.5821 67.4548 50.7244C67.4133 48.8667 66.6891 47.0894 65.4206 45.7315C64.152 44.3736 62.4278 43.5303 60.5771 43.3625C58.7264 43.1947 56.8786 43.7141 55.3865 44.8216C53.8943 45.9292 52.8622 47.5473 52.4871 49.3672C52.112 51.1871 52.4201 53.0814 53.3528 54.6886L45.2835 61.8988V46.4211L55.351 37.4239C56.8357 38.5383 58.6789 39.067 60.5287 38.9091C62.3785 38.7512 64.1053 37.9178 65.3797 36.5679C66.6541 35.218 67.3868 33.4462 67.4379 31.5905C67.489 29.7349 66.855 27.9254 65.6568 26.5074C64.4586 25.0894 62.7803 24.1622 60.942 23.9028C59.1037 23.6433 57.2342 24.0698 55.6904 25.1008C54.1465 26.1318 53.0364 27.6951 52.5718 29.4924C52.1073 31.2897 52.3209 33.1951 53.1718 34.845L45.2835 41.8803V27.6649C47.0902 27.2649 48.6865 26.2138 49.7678 24.7122C50.8491 23.2106 51.3397 21.3636 51.1462 19.5234C50.9526 17.6832 50.0884 15.9786 48.7183 14.7348C47.3482 13.4911 45.5682 12.7951 43.7177 12.7797C41.8673 12.7643 40.0759 13.4305 38.6853 14.6513C37.2947 15.8721 36.4022 17.562 36.178 19.3987C35.9538 21.2354 36.4136 23.0904 37.4697 24.6098C38.5259 26.1292 40.1044 27.2067 41.9042 27.6368V42.1537L33.841 34.9555C34.431 33.8676 34.7392 32.6493 34.7376 31.4117C34.7448 29.7157 34.1806 28.0667 33.1359 26.7306C32.0912 25.3944 30.6269 24.449 28.9791 24.0468C27.3313 23.6447 25.5961 23.8091 24.0532 24.5137C22.5103 25.2183 21.2497 26.4219 20.4746 27.9305C19.6996 29.4391 19.4552 31.1648 19.781 32.8292C20.1068 34.4936 20.9837 35.9999 22.2704 37.105C23.557 38.2101 25.1784 38.8498 26.8731 38.9208C28.5678 38.9917 30.237 38.4899 31.6116 37.4963L41.9042 46.6884V62.1662L33.65 54.7911C34.6024 53.2081 34.9389 51.33 34.5953 49.5149C34.2517 47.6998 33.252 46.0745 31.787 44.9491C30.3219 43.8236 28.4938 43.2766 26.6513 43.4123C24.8087 43.5481 23.0806 44.3571 21.7963 45.6851C20.512 47.0132 19.7614 48.7673 19.6876 50.6132C19.6138 52.4591 20.2219 54.2676 21.396 55.694C22.5702 57.1203 24.2282 58.0647 26.054 58.3471C27.8798 58.6295 29.7457 58.2302 31.296 57.2253L41.9042 66.6949V87.1335C18.6071 86.2571 0 67.0929 0 43.5849C0 19.514 19.5138 0 43.5949 0C67.676 0 87.1837 19.514 87.1837 43.5849Z" fill="#F6A704"/>
<path d="M142.524 32.0972H134.07V65.3903H142.524V32.0972Z" fill="#2C4154"/>
<path d="M116.221 45.5366L128.567 32.1132H118.047L106.614 45.5366V21.7632H98.1611V65.3722H106.614V55.4584L110.313 51.5407L118.047 65.3722H128.567L116.221 45.5366Z" fill="#2C4154"/>
<path d="M166.803 45.5366L178.667 32.079H168.148L157.258 45.4662V21.7632H148.805V65.3722H157.258V55.3921L160.894 51.5407L168.628 65.3722H179.146L166.803 45.5366Z" fill="#2C4154"/>
<path d="M254.938 32.051C242.402 32.051 242.016 43.5789 242.016 43.5789H250.66C250.66 43.5789 250.148 38.9678 255.837 38.9678C261.526 38.9678 261.709 41.8502 261.709 42.3568C261.709 42.8633 261.353 45.2734 255.979 45.8141C250.606 46.3548 240.746 47.0765 240.89 56.944C240.995 64.4457 248.403 65.4246 253.286 65.4588C254.866 65.4708 256.429 65.141 257.87 64.4918C259.31 63.8426 260.593 62.8895 261.63 61.6979L261.709 61.6074V65.3824H269.681V39.5808C269.681 39.5808 268.628 32.051 254.938 32.051ZM253.981 60.5119C252.899 60.5129 251.856 60.1099 251.056 59.3818C250.256 58.6536 249.756 57.653 249.656 56.5759C249.555 55.4988 249.86 54.4229 250.512 53.5592C251.163 52.6955 252.114 52.1061 253.177 51.9067L253.298 51.8886C253.391 51.8703 253.486 51.8569 253.581 51.8484C259.246 51.0826 261.317 49.6655 261.317 49.6655C262.867 61.123 253.983 60.52 253.983 60.52" fill="#2C4154"/>
<path d="M231.193 33.0981L224.985 56.7288L218.335 33.0981H209.912L220.366 65.3742C221.298 71.714 217.041 71.714 217.041 71.714C217.041 71.714 217.016 71.7844 216.972 71.915H214.027V78.685H217.043C218.215 78.685 218.898 78.868 220.058 78.685C221.103 78.5202 222.671 78.1644 223.596 77.5473C224.364 77.0348 224.919 76.2187 225.349 75.3603C226.216 73.5584 226.972 71.705 227.613 69.8105C228.129 68.3491 228.618 66.8737 229.058 65.3883L239.345 33.1122L231.193 33.0981Z" fill="#2C4154"/>
<path d="M277.418 21.3774C276.193 21.3774 274.995 21.7408 273.976 22.4215C272.957 23.1022 272.163 24.0698 271.694 25.2018C271.225 26.3338 271.103 27.5794 271.342 28.7811C271.581 29.9829 272.171 31.0867 273.037 31.9531C273.904 32.8195 275.008 33.4096 276.21 33.6486C277.411 33.8877 278.657 33.765 279.789 33.2961C280.921 32.8272 281.889 32.0331 282.57 31.0144C283.251 29.9956 283.614 28.7978 283.614 27.5725C283.612 25.93 282.959 24.3552 281.798 23.1937C280.636 22.0322 279.061 21.379 277.418 21.3774V21.3774ZM277.418 32.433C276.458 32.433 275.519 32.1481 274.72 31.6145C273.921 31.0809 273.299 30.3224 272.931 29.435C272.564 28.5476 272.467 27.5712 272.655 26.6291C272.842 25.6871 273.305 24.8218 273.984 24.1426C274.663 23.4634 275.529 23.0009 276.471 22.8135C277.413 22.6261 278.389 22.7223 279.277 23.0898C280.164 23.4574 280.923 24.0799 281.457 24.8785C281.99 25.6771 282.275 26.6161 282.275 27.5766C282.272 28.8634 281.76 30.0967 280.849 31.0062C279.939 31.9157 278.705 32.4273 277.418 32.4289" fill="#2C4154"/>
<path d="M278.66 27.665C279.016 27.4552 279.292 27.1343 279.447 26.7519C279.601 26.3695 279.626 25.9468 279.517 25.549C279.407 25.1513 279.17 24.8005 278.842 24.5508C278.514 24.3011 278.112 24.1664 277.7 24.1675H274.805V30.5596H276.367V28.0309H277.273C277.511 28.0309 277.675 28.3384 277.675 28.3384L278.681 30.5495H280.357C280.343 30.3123 279.211 28.3585 279.073 28.065C278.969 27.8964 278.824 27.7577 278.65 27.663L278.66 27.665ZM277.689 25.7293C277.734 25.7258 277.778 25.7315 277.82 25.746C277.862 25.7606 277.901 25.7836 277.933 25.8137C277.966 25.8438 277.992 25.8804 278.01 25.921C278.027 25.9617 278.037 26.0056 278.037 26.0499C278.037 26.0943 278.027 26.1382 278.01 26.1789C277.992 26.2195 277.966 26.256 277.933 26.2862C277.901 26.3163 277.862 26.3393 277.82 26.3538C277.778 26.3684 277.734 26.374 277.689 26.3705H276.365V25.7293H277.689Z" fill="#2C4154"/>
<path d="M193.629 65.2175C190.997 65.2374 188.408 64.5427 186.139 63.2074C182.619 61.0948 181.244 58.0294 180.51 55.9088C179.738 53.6575 179.487 51.4705 179.35 48.8734V48.7468C179.31 46.2241 179.459 42.9075 180.958 39.629C183.773 33.5083 191.327 30.6037 198.54 32.8731C202.036 33.9746 204.533 36.1717 206.179 39.5908C207.973 43.3216 208.165 47.0945 208.133 49.9649C208.109 52.0896 207.882 55.2796 206.189 58.4455C204.611 61.3983 201.566 63.6617 197.825 64.6547C196.456 65.0229 195.046 65.2121 193.629 65.2175ZM186.645 48.588C186.754 50.582 186.933 52.2062 187.45 53.7037C188.065 55.4987 188.805 56.5178 190.003 57.2415C191.599 58.2003 193.8 58.4475 195.895 57.8827C197.674 57.4103 199.067 56.4435 199.714 55.2334C200.474 53.8142 200.822 52.17 200.848 49.9006C200.884 46.6945 200.502 44.4995 199.572 42.5597C198.786 40.9255 197.837 40.0592 196.293 39.5727C192.654 38.429 188.935 39.6833 187.649 42.4894C186.722 44.4794 186.619 46.6844 186.645 48.586V48.588Z" fill="#2C4154"/>
</svg>
